# xmcd CD database file
#
# Track frame offsets:
#	182
#	24977
#	47427
#	60705
#	72927
#	90655
#	109965
#	120897
#	141997
#	158292
#	183967
#	201787
#	220080
#
# Disc length: 3167 seconds
#
# Revision: 0
# Processed by: cddbd v1.5.1PL0 Copyright (c) Steve Scherf et al.
# Submitted via: CDex 1.51
#
DISCID=a70c5d0d
DTITLE=Joe Cocker - Milestones disc 2
DYEAR=1989
DGENRE=Blues
TTITLE0=Delta Lady (live)
TTITLE1=Midnight rider (live)
TTITLE2=She's so good to me
TTITLE3=You are so beautiful
TTITLE4=It's all over but the shouting
TTITLE5=The letter (live)
TTITLE6=Sing me a song
TTITLE7=Performance
TTITLE8=Jack-a-diamonds
TTITLE9=Love the one your with (live)
TTITLE10=If I love you
TTITLE11=I think it's going to rain today
TTITLE12=Lucinda
EXTD=YEAR: 1989
EXTT0=
EXTT1=
EXTT2=
EXTT3=
EXTT4=
EXTT5=
EXTT6=
EXTT7=
EXTT8=
EXTT9=
EXTT10=
EXTT11=
EXTT12=
PLAYORDER=
